<?xml version="1.0" standalone="no"?><!-- Generator: Gravit.io --><svg xmlns="http://www.w3.org/2000/svg" xmlns:xlink="http://www.w3.org/1999/xlink" style="isolation:isolate" viewBox="0 0 32 32" width="32" height="32"><g><g><g><path d=" M 30.277 1.722 C 29.169 0.611 27.691 0 26.122 0 C 24.553 0 23.077 0.61 21.968 1.72 L 4.295 19.291 C 4.19 19.395 4.11 19.52 4.06 19.658 L 0.06 30.658 C -0.069 31.013 0.014 31.414 0.275 31.689 C 0.467 31.891 0.73 32 1.001 32 C 1.099 32 1.197 31.986 1.294 31.956 L 11.243 28.904 C 11.399 28.857 11.541 28.771 11.657 28.656 L 30.278 10.035 C 31.39 8.926 32.001 7.448 32.001 5.878 C 32 4.309 31.39 2.832 30.277 1.722 Z  M 10.093 27.165 L 6.369 28.309 C 6.152 27.672 5.814 27.108 5.353 26.647 C 4.952 26.248 4.487 25.938 3.997 25.686 L 5.701 21 L 8.001 21 L 8.001 23 C 8.001 23.553 8.448 24 9.001 24 L 10.766 24 L 10.093 27.165 Z  M 24.813 12.671 L 12.629 24.855 L 12.979 23.208 C 13.041 22.912 12.967 22.605 12.777 22.371 C 12.587 22.136 12.302 22 12.001 22 L 10.001 22 L 10.001 20 C 10.001 19.448 9.553 19 9.001 19 L 7.423 19 L 19.316 7.175 L 19.328 7.186 C 20.06 6.453 21.035 6.05 22.07 6.05 C 23.105 6.05 24.081 6.453 24.812 7.186 C 25.543 7.919 25.95 8.893 25.95 9.929 C 25.95 10.965 25.547 11.938 24.813 12.671 Z  M 28.863 8.621 L 27.931 9.554 C 27.841 8.125 27.248 6.793 26.228 5.772 C 25.207 4.75 23.874 4.158 22.441 4.069 L 23.379 3.138 L 23.381 3.136 C 24.111 2.403 25.086 2 26.122 2 C 27.158 2 28.132 2.403 28.863 3.136 C 29.597 3.869 30.001 4.843 30.001 5.878 C 30.001 6.915 29.599 7.889 28.863 8.621 Z  M 22.294 8.293 L 12.294 18.293 C 11.903 18.684 11.903 19.316 12.294 19.707 C 12.488 19.902 12.745 20 13.001 20 C 13.257 20 13.512 19.902 13.708 19.707 L 23.708 9.707 C 24.099 9.316 24.099 8.684 23.708 8.293 C 23.316 7.902 22.685 7.902 22.294 8.293 Z " fill="rgb(67,74,84)"/></g></g></g></svg>